<?xml version="1.0" encoding="UTF-8" standalone="no"?>
<!-- Created with Inkscape (http://www.inkscape.org/) -->

<svg
   width="100mm"
   height="137mm"
   viewBox="0 0 100 137"
   version="1.1"
   id="svg5"
   inkscape:version="1.1 (c68e22c387, 2021-05-23)"
   sodipodi:docname="android-cupcake-logo.svg"
   xmlns:inkscape="http://www.inkscape.org/namespaces/inkscape"
   xmlns:sodipodi="http://sodipodi.sourceforge.net/DTD/sodipodi-0.dtd"
   xmlns="http://www.w3.org/2000/svg"
   xmlns:svg="http://www.w3.org/2000/svg">
  <sodipodi:namedview
     id="namedview7"
     pagecolor="#ffffff"
     bordercolor="#666666"
     borderopacity="1.0"
     inkscape:pageshadow="2"
     inkscape:pageopacity="0.0"
     inkscape:pagecheckerboard="0"
     inkscape:document-units="mm"
     showgrid="false"
     inkscape:zoom="1"
     inkscape:cx="90.5"
     inkscape:cy="282.5"
     inkscape:window-width="1920"
     inkscape:window-height="1017"
     inkscape:window-x="1912"
     inkscape:window-y="-8"
     inkscape:window-maximized="1"
     inkscape:current-layer="layer1" />
  <defs
     id="defs2" />
  <g
     inkscape:label="Capa 1"
     inkscape:groupmode="layer"
     id="layer1">
    <g
       id="g31240"
       transform="matrix(2.2015382,0,0,2.2015382,-70.972182,-122.99804)">
      <path
         id="rect8801"
         style="fill:#8ec63f;fill-opacity:1;fill-rule:evenodd;stroke-width:0.1;stroke-linecap:round;stroke-linejoin:round;paint-order:markers fill stroke;stop-color:#000000"
         d="m 54.749119,63.119435 c 0.16955,-0.116931 0.72761,-0.09939 0.72761,-0.09939 0,0 0.51128,0.0058 0.7276,0.350791 v 12.514575 h -1.45521 z"
         sodipodi:nodetypes="cccccc" />
      <path
         id="ellipse3033-5"
         style="fill:#c5de9d;fill-opacity:1;stroke:#c5de9d;stroke-width:3.026;stroke-miterlimit:4;stroke-dasharray:none;stroke-opacity:1"
         d="m 42.060502,70.072198 c -0.110511,0.0013 -0.213193,0.03003 -0.314709,0.0863 -0.33337,0.184785 -0.443121,0.567542 -0.257865,0.901753 l 3.293337,5.949508 c -6.336189,3.296893 -10.616096,9.562332 -10.624674,16.752982 l 0.424264,1.316715 4.250902,13.173874 1.26969,3.64112 c 0,0 1.270082,4.15323 4.153752,4.15323 h 0.684197 v 5.3e-4 h 21.776965 c 2.88367,0 4.153233,-4.15324 4.153233,-4.15324 l 1.269691,-3.64112 3.491259,-13.244146 0.22221,-1.246952 c -0.008,-7.19065 -4.287938,-13.456087 -10.624158,-16.752983 l 3.292821,-5.949508 c 0.185261,-0.334211 0.076,-0.716968 -0.257347,-0.901753 -0.10151,-0.05626 -0.204716,-0.0852 -0.315227,-0.0863 -0.23658,-0.0024 -0.460825,0.115909 -0.587044,0.343649 L 64.02557,76.42996 c -2.729222,-1.21058 -5.79024,-1.890323 -9.020638,-1.890326 -3.230391,0 -6.291953,0.679746 -9.021157,1.890326 l -3.336229,-6.014103 c -0.12623,-0.22773 -0.350462,-0.345911 -0.587044,-0.343649 z" />
      <circle
         style="fill:#f6fced;fill-opacity:1;fill-rule:evenodd;stroke:none;stroke-width:0.377953;stroke-linecap:round;stroke-linejoin:round;stroke-miterlimit:4;stroke-dasharray:none;paint-order:markers fill stroke;stop-color:#000000"
         id="path8609-3"
         cx="64.472549"
         cy="84.285934"
         r="2.4143229" />
      <circle
         style="fill:#f6fced;fill-opacity:1;fill-rule:evenodd;stroke:none;stroke-width:0.377953;stroke-linecap:round;stroke-linejoin:round;stroke-miterlimit:4;stroke-dasharray:none;paint-order:markers fill stroke;stop-color:#000000"
         id="path8609"
         cx="45.65406"
         cy="84.120567"
         r="2.4143229" />
      <path
         style="fill:#8ec63f;fill-opacity:1;stroke:none;stroke-width:0.065;stroke-linecap:butt;stroke-linejoin:miter;stroke-miterlimit:4;stroke-dasharray:none;stroke-opacity:1"
         d="m 55.063309,62.771995 c 0,0 0.91008,-0.871958 0.12664,-3.292417 0.45603,-0.643118 0.78975,0.77237 0.78975,0.77237 0,0 0.11741,1.358483 0.0299,2.760413 0.29836,-0.08309 1.09942,-6.081261 -0.45016,-6.888022 -1.47942,0.549632 -0.49609,6.647656 -0.49609,6.647656 z"
         id="path9600"
         sodipodi:nodetypes="ccccccc" />
      <path
         style="fill:#8ec63f;fill-opacity:1;stroke-width:0.226043"
         d="m 42.060502,70.072212 c -0.110512,0.0012 -0.213505,0.02965 -0.315022,0.08592 -0.333369,0.184784 -0.443001,0.567894 -0.257745,0.902105 l 3.29326,5.949385 c -6.336189,3.296892 -10.615948,9.56234 -10.624526,16.75299 h 41.69638 c -0.008,-7.19065 -4.28832,-13.456098 -10.62454,-16.752993 l 3.29328,-5.949386 c 0.18526,-0.334211 0.0756,-0.717321 -0.25775,-0.902105 -0.10151,-0.05626 -0.20451,-0.08482 -0.31502,-0.08592 -0.23658,-0.0025 -0.46085,0.115922 -0.58707,0.343662 l -3.33623,6.013904 c -2.72922,-1.210578 -5.79039,-1.890133 -9.02079,-1.890133 -3.230391,0 -6.291721,0.679555 -9.020924,1.890133 L 42.647588,70.41587 c -0.12623,-0.227729 -0.350503,-0.345925 -0.587086,-0.343662 z m 3.321899,12.579017 c 0.95185,0 1.739705,0.788011 1.739705,1.739859 0,0.951849 -0.787855,1.739703 -1.739705,1.739703 -0.95185,0 -1.739705,-0.787854 -1.739705,-1.739703 0,-0.951848 0.787855,-1.739859 1.739705,-1.739859 z m 19.244368,0 c 0.95186,0 1.7397,0.788011 1.7397,1.739859 0,0.951849 -0.78784,1.739703 -1.7397,1.739703 -0.95185,0 -1.73971,-0.787854 -1.73971,-1.739703 0,-0.951848 0.78786,-1.739859 1.73971,-1.739859 z"
         id="ellipse3033"
         sodipodi:nodetypes="ssccccccscccsccssssssssssss" />
      <path
         style="fill:#c5de9d;fill-opacity:1;stroke:none;stroke-width:0.264583px;stroke-linecap:butt;stroke-linejoin:miter;stroke-opacity:1"
         d="m 33.810756,91.501522 0.912055,0.280633 0.844011,0.838147 1.058333,-0.876432 1.289844,0.08268 0.694531,0.727604 1.30638,-0.909505 1.422136,0.214974 0.926041,0.926042 1.372526,-1.058334 1.521354,0.04961 1.389063,1.091406 1.124479,-1.141016 1.852083,-0.09922 1.107943,1.190625 1.521354,-1.041797 1.98438,0.09922 1.02526,1.025261 1.0914,-1.141016 2.06706,0.132292 0.76068,0.810286 1.2733,-1.124479 1.27331,0.09922 0.79375,1.091406 0.92604,-0.926041 1.4056,-0.181901 1.20716,1.091406 1.07487,-1.091406 1.50482,-0.03307 0.94258,1.074869 1.10794,-0.942578 1.75287,0.264584 1.33945,-0.380339 0.94258,0.363802 0.95911,-0.479557 0.94258,0.248047 -0.46302,3.373437 -0.43403,-0.141078 -41.049695,0.06975 -1.202772,-0.899822 z"
         id="path12697" />
      <path
         id="path904"
         style="fill:#f6fced;fill-opacity:1;stroke:none;stroke-width:0.264583px;stroke-linecap:butt;stroke-linejoin:miter;stroke-opacity:1"
         d="m 57.495716,94.148374 -1.735813,0.837158 -0.931724,-0.0011 -1.814878,-0.0098 -1.300694,-0.09199 h -2.20245 l -1.397847,0.09354 -4.379579,-0.0052 0.0021,0.03411 h -2.998782 l -0.854729,-0.488857 -0.389641,0.433046 -1.557526,0.04289 -0.95188,-0.324527 -0.605648,0.259932 -1.211812,0.151413 h -0.583944 l 4.250902,13.173871 1.26969,3.64112 c 0,0 1.270082,4.15324 4.153752,4.15324 h 0.684197 v 5.3e-4 h 21.776965 c 2.88367,0 4.153233,-4.15324 4.153233,-4.15324 l 1.269691,-3.64112 3.491261,-13.24415 h -0.584462 l -7.809341,-0.0093 0.0016,-0.02946 -2.058787,0.02687 -0.482658,-5.29e-4 -0.876951,-0.177766 -1.305345,0.174665 -4.078822,-0.0047 z" />
      <path
         style="fill:#8ec63f;fill-opacity:1;stroke:none;stroke-width:0.264583px;stroke-linecap:butt;stroke-linejoin:miter;stroke-opacity:1"
         d="m 47.332512,94.985016 1.281575,-1.372526 0.89607,1.270182 2.361613,21.167718 -0.818556,0.002 z"
         id="path4801"
         sodipodi:nodetypes="cccccc" />
      <path
         style="fill:#8ec63f;fill-opacity:1;stroke:none;stroke-width:0.264583px;stroke-linecap:butt;stroke-linejoin:miter;stroke-opacity:1"
         d="m 51.712607,94.882672 1.184422,-1.286719 1.2485,1.16582 -0.24391,21.288437 h -0.93018 z"
         id="path4869"
         sodipodi:nodetypes="cccccc" />
      <path
         style="fill:#8ec63f;fill-opacity:1;stroke:none;stroke-width:0.264583px;stroke-linecap:butt;stroke-linejoin:miter;stroke-opacity:1"
         d="m 55.875519,95.021126 1.39148,-1.409012 0.46772,0.730816 -1.20794,21.70477 h -1.30638 z"
         id="path4937"
         sodipodi:nodetypes="cccccc" />
      <path
         style="fill:#8ec63f;fill-opacity:1;stroke:none;stroke-width:0.264583px;stroke-linecap:butt;stroke-linejoin:miter;stroke-opacity:1"
         d="m 34.384465,93.885341 0.950846,1.190625 7.00109,20.278124 c 0,0 -1.387459,-0.57823 -2.866213,-5.07355 -1.536795,-4.67176 -4.889302,-15.201489 -4.889302,-15.201489 z"
         id="path2670"
         sodipodi:nodetypes="cccscc" />
      <path
         style="fill:#8ec63f;fill-opacity:1;stroke:none;stroke-width:0.264583px;stroke-linecap:butt;stroke-linejoin:miter;stroke-opacity:1"
         d="m 37.178351,93.816743 -0.08185,1.391472 6.883244,20.844245 1.157552,-0.008 -6.949446,-21.03437 z"
         id="path4421"
         sodipodi:nodetypes="cccccc" />
      <path
         style="fill:#8ec63f;fill-opacity:1;stroke:none;stroke-width:0.264583px;stroke-linecap:butt;stroke-linejoin:miter;stroke-opacity:1"
         d="m 40.47815,93.769586 1.099674,1.182357 6.141876,21.097347 -1.257688,0.003 -6.580675,-21.535924 z"
         id="path4489"
         sodipodi:nodetypes="cccccc" />
      <path
         style="fill:#8ec63f;fill-opacity:1;stroke:none;stroke-width:0.264583px;stroke-linecap:butt;stroke-linejoin:miter;stroke-opacity:1"
         d="m 43.413543,94.867669 0.975479,-1.172497 0.909505,1.231966 4.558004,21.123922 -1.055298,-0.003 -5.47864,-21.048169 z"
         id="path4557"
         sodipodi:nodetypes="ccccccc" />
      <path
         style="fill:#8ec63f;fill-opacity:1;stroke:none;stroke-width:0.264583px;stroke-linecap:butt;stroke-linejoin:miter;stroke-opacity:1"
         d="m 59.780999,94.986047 1.08745,-1.087453 0.94714,1.064067 -2.9489,21.087729 h -1.10794 z"
         id="path5005"
         sodipodi:nodetypes="cccccc" />
      <path
         style="fill:#8ec63f;fill-opacity:1;stroke:none;stroke-width:0.264583px;stroke-linecap:butt;stroke-linejoin:miter;stroke-opacity:1"
         d="m 64.340259,93.786122 0.59167,1.024806 -3.64265,21.240612 h -1.07487 l 3.79512,-21.240157 -0.18957,0.0077 z"
         id="path5073"
         sodipodi:nodetypes="ccccccc" />
      <path
         style="fill:#8ec63f;fill-opacity:1;stroke:none;stroke-width:0.264583px;stroke-linecap:butt;stroke-linejoin:miter;stroke-opacity:1"
         d="m 67.771569,93.777854 0.60359,1.116211 -5.10977,21.151625 h -0.90951 l 4.63021,-21.151625 z"
         id="path5141"
         sodipodi:nodetypes="cccccc" />
      <path
         style="fill:#8ec63f;fill-opacity:1;stroke:none;stroke-width:0.264583px;stroke-linecap:butt;stroke-linejoin:miter;stroke-opacity:1"
         d="m 70.351259,95.00982 0.66973,-1.033528 0.52917,0.851627 -5.70187,21.224121 h -0.87558 z"
         id="path5209"
         sodipodi:nodetypes="cccccc" />
      <path
         style="fill:#8ec63f;fill-opacity:1;stroke:none;stroke-width:0.264583px;stroke-linecap:butt;stroke-linejoin:miter;stroke-opacity:1"
         d="m 72.881339,94.985016 0.66146,-0.677995 0.46302,0.537435 -5.822339,20.811384 c -0.643117,0.39757 -1.258694,0.38209 -1.258694,0.38209 z"
         id="path5277"
         sodipodi:nodetypes="cccccc" />
      <path
         style="fill:#f6fced;fill-opacity:1;stroke:none;stroke-width:0.1;stroke-linecap:butt;stroke-linejoin:miter;stroke-miterlimit:4;stroke-dasharray:none;stroke-opacity:1"
         d="m 34.227369,90.652464 c 0,0 1.281575,0.181907 1.39733,1.504818 0,0 0.147757,-1.414283 1.612305,-1.4056 1.687419,0.01 1.542906,1.446353 1.542906,1.446353 0,0 0.39186,-1.462889 1.599021,-1.446353 1.207161,0.01654 1.851424,1.00305 2.066398,1.581826 0.144816,-0.257276 0.56957,-1.577977 2.084253,-1.565289 1.533007,0.01284 1.95957,1.546158 1.95957,1.546158 0,0 0.699292,-1.612795 2.230231,-1.584597 1.497709,0.02759 1.99951,1.601946 1.99951,1.601946 0,0 0.760047,-1.648719 2.233376,-1.613638 1.47332,0.03508 2.25156,1.658406 2.25156,1.658406 0,0 0.60154,-1.6701 2.10994,-1.646714 1.5084,0.02339 1.74226,1.333008 1.74226,1.333008 0,0 0.46774,-1.346811 1.96443,-1.333008 1.2687,0.0117 1.53763,1.473322 1.53763,1.473322 0,0 0.3435,-1.459688 1.81524,-1.45142 1.47175,0.0083 1.62884,1.455209 1.62884,1.455209 0,0 0.43217,-1.488803 1.83534,-1.453724 1.40316,0.03508 1.60194,1.368086 1.60194,1.368086 0,0 0.56127,-1.414859 1.73057,-1.414859 1.16931,0 1.20438,0.952984 1.20438,0.952984 0,0 0.19654,-0.977789 1.27229,-0.954403 1.07577,0.02339 1.07802,0.925169 1.07802,0.925169 0,0 0.45603,-0.92375 1.06407,-0.900364 0.15785,0.456033 0.0939,1.063699 0.0939,1.063699 0,0 0.3638,-0.0083 0.19017,0.785482 -0.17364,0.79375 0.0799,-0.525588 -0.42954,-0.526329 -0.35494,-5.17e-4 -0.76936,0.402305 -0.92645,0.981082 -0.1571,0.578776 -0.1819,-0.909506 -1.14929,-0.868165 -0.96738,0.04134 -0.99218,1.000456 -0.99218,1.000456 0,0 -0.64493,-1.116211 -1.57097,-0.992187 -0.92604,0.124023 -1.36426,1.413867 -1.36426,1.413867 0,0 -0.80201,-1.5875 -1.87688,-1.430404 -1.07487,0.157097 -1.64538,1.298112 -1.64538,1.298112 0,0 -1.05833,-1.39733 -1.90169,-1.298112 -0.84336,0.09922 -1.66192,1.372526 -1.66192,1.372526 0,0 -0.79375,-1.430403 -1.7694,-1.39733 -0.97565,0.03307 -1.62057,1.438671 -1.62057,1.438671 0,0 -0.62839,-1.513085 -1.96784,-1.39733 -1.33945,0.115755 -1.93477,1.703255 -1.93477,1.703255 0,0 -0.94257,-1.719792 -2.34817,-1.72806 -1.405602,-0.0083 -2.124938,1.769401 -2.124938,1.769401 0,0 -0.911637,-1.738696 -2.256337,-1.750391 -1.3447,-0.01169 -2.011204,1.672106 -2.011204,1.672106 0,0 -0.818512,-1.660411 -2.104747,-1.660411 -1.286235,0 -1.905966,1.648719 -1.905966,1.648719 0,0 -1.114454,-1.803447 -2.222397,-1.712497 -1.107942,0.09095 -1.480013,1.372526 -1.480013,1.372526 0,0 -0.727604,-1.413867 -1.645377,-1.331185 -0.917774,0.08268 -1.49655,1.347722 -1.49655,1.347722 0,0 -0.580744,-1.348672 -1.481108,-1.395445 -0.09008,-0.41884 0.04244,-1.457094 0.04244,-1.457094 z"
         id="path5837"
         sodipodi:nodetypes="ccscscscscscscscccscscscccsssscscscscscscccscscscscccc" />
      <path
         style="fill:#8ec63f;fill-opacity:1;stroke:none;stroke-width:0.264583px;stroke-linecap:butt;stroke-linejoin:miter;stroke-opacity:1"
         d="m 75.08486,94.827339 0.28112,-0.248047 0.26458,0.429948 c 0,0 -3.276926,13.69379 -4.71517,16.74567 0,0 -0.09939,0.40926 -0.61973,1.50841 -0.508647,0.92375 -0.795127,1.22192 -0.795127,1.22192 z"
         id="path27575"
         sodipodi:nodetypes="ccccccc" />
    </g>
  </g>
</svg>
